{
    "asset" : {
        "generator" : "Khronos glTF Blender I/O v1.6.16",
        "version" : "2.0"
    },
    "scene" : 0,
    "scenes" : [
        {
            "name" : "Scene",
            "nodes" : [
                0,
                1,
                2
            ]
        }
    ],
    "nodes" : [
        {
            "name" : "Light",
            "rotation" : [
                0.16907575726509094,
                0.7558803558349609,
                -0.27217137813568115,
                0.570947527885437
            ],
            "translation" : [
                4.076245307922363,
                5.903861999511719,
                -1.0054539442062378
            ]
        },
        {
            "name" : "Camera",
            "rotation" : [
                0.483536034822464,
                0.33687159419059753,
                -0.20870360732078552,
                0.7804827094078064
            ],
            "translation" : [
                7.358891487121582,
                4.958309173583984,
                6.925790786743164
            ]
        },
        {
            "mesh" : 0,
            "name" : "canoeTerrainPost",
            "rotation" : [
                0.7071068286895752,
                0,
                0,
                0.7071067094802856
            ]
        }
    ],
    "materials" : [
        {
            "doubleSided" : true,
            "name" : "lambert11SG.001",
            "pbrMetallicRoughness" : {
                "baseColorFactor" : [
                    0.23000000417232513,
                    0.23999999463558197,
                    0.23999999463558197,
                    1
                ],
                "metallicFactor" : 0
            }
        },
        {
            "doubleSided" : true,
            "name" : "lambert10SG",
            "pbrMetallicRoughness" : {
                "baseColorFactor" : [
                    0.14000000059604645,
                    0.12999999523162842,
                    0.029999999329447746,
                    1
                ],
                "metallicFactor" : 0
            }
        },
        {
            "doubleSided" : true,
            "name" : "lambert14SG.001",
            "pbrMetallicRoughness" : {
                "baseColorFactor" : [
                    0.9200000166893005,
                    0.8600000143051147,
                    0.5799999833106995,
                    1
                ],
                "metallicFactor" : 0
            }
        }
    ],
    "meshes" : [
        {
            "name" : "canoeTerrainPost",
            "primitives" : [
                {
                    "attributes" : {
                        "POSITION" : 0,
                        "NORMAL" : 1,
                        "TEXCOORD_0" : 2
                    },
                    "indices" : 3,
                    "material" : 0
                },
                {
                    "attributes" : {
                        "POSITION" : 4,
                        "NORMAL" : 5,
                        "TEXCOORD_0" : 6
                    },
                    "indices" : 7,
                    "material" : 1
                },
                {
                    "attributes" : {
                        "POSITION" : 8,
                        "NORMAL" : 9,
                        "TEXCOORD_0" : 10
                    },
                    "indices" : 11,
                    "material" : 2
                }
            ]
        }
    ],
    "accessors" : [
        {
            "bufferView" : 0,
            "componentType" : 5126,
            "count" : 2376,
            "max" : [
                29.679933547973633,
                79.79771423339844,
                -0.9757980108261108
            ],
            "min" : [
                -29.679933547973633,
                -76.91334533691406,
                -6.621261119842529
            ],
            "type" : "VEC3"
        },
        {
            "bufferView" : 1,
            "componentType" : 5126,
            "count" : 2376,
            "type" : "VEC3"
        },
        {
            "bufferView" : 2,
            "componentType" : 5126,
            "count" : 2376,
            "type" : "VEC2"
        },
        {
            "bufferView" : 3,
            "componentType" : 5123,
            "count" : 2376,
            "type" : "SCALAR"
        },
        {
            "bufferView" : 4,
            "componentType" : 5126,
            "count" : 124,
            "max" : [
                78.74230194091797,
                85.08340454101562,
                -2.9750590324401855
            ],
            "min" : [
                -78.74230194091797,
                -85.08338165283203,
                -2.9750609397888184
            ],
            "type" : "VEC3"
        },
        {
            "bufferView" : 5,
            "componentType" : 5126,
            "count" : 124,
            "type" : "VEC3"
        },
        {
            "bufferView" : 6,
            "componentType" : 5126,
            "count" : 124,
            "type" : "VEC2"
        },
        {
            "bufferView" : 7,
            "componentType" : 5123,
            "count" : 360,
            "type" : "SCALAR"
        },
        {
            "bufferView" : 8,
            "componentType" : 5126,
            "count" : 399,
            "max" : [
                35.43404006958008,
                85.08340454101562,
                17.200435638427734
            ],
            "min" : [
                -35.43404006958008,
                -85.08338165283203,
                -5.337626934051514
            ],
            "type" : "VEC3"
        },
        {
            "bufferView" : 9,
            "componentType" : 5126,
            "count" : 399,
            "type" : "VEC3"
        },
        {
            "bufferView" : 10,
            "componentType" : 5126,
            "count" : 399,
            "type" : "VEC2"
        },
        {
            "bufferView" : 11,
            "componentType" : 5123,
            "count" : 2160,
            "type" : "SCALAR"
        }
    ],
    "bufferViews" : [
        {
            "buffer" : 0,
            "byteLength" : 28512,
            "byteOffset" : 0
        },
        {
            "buffer" : 0,
            "byteLength" : 28512,
            "byteOffset" : 28512
        },
        {
            "buffer" : 0,
            "byteLength" : 19008,
            "byteOffset" : 57024
        },
        {
            "buffer" : 0,
            "byteLength" : 4752,
            "byteOffset" : 76032
        },
        {
            "buffer" : 0,
            "byteLength" : 1488,
            "byteOffset" : 80784
        },
        {
            "buffer" : 0,
            "byteLength" : 1488,
            "byteOffset" : 82272
        },
        {
            "buffer" : 0,
            "byteLength" : 992,
            "byteOffset" : 83760
        },
        {
            "buffer" : 0,
            "byteLength" : 720,
            "byteOffset" : 84752
        },
        {
            "buffer" : 0,
            "byteLength" : 4788,
            "byteOffset" : 85472
        },
        {
            "buffer" : 0,
            "byteLength" : 4788,
            "byteOffset" : 90260
        },
        {
            "buffer" : 0,
            "byteLength" : 3192,
            "byteOffset" : 95048
        },
        {
            "buffer" : 0,
            "byteLength" : 4320,
            "byteOffset" : 98240
        }
    ],
    "buffers" : [
        {
            "byteLength" : 102560,
            "uri" : "data:application/octet-stream;base64,"
        }
    ]
}
