{
    "asset" : {
        "generator" : "Khronos glTF Blender I/O v1.8.19",
        "version" : "2.0"
    },
    "scene" : 0,
    "scenes" : [
        {
            "name" : "Scene",
            "nodes" : [
                0
            ]
        }
    ],
    "nodes" : [
        {
            "mesh" : 0,
            "name" : "canoeTerrainPost",
            "rotation" : [
                0.7071068286895752,
                0,
                0,
                0.7071067094802856
            ]
        }
    ],
    "materials" : [
        {
            "doubleSided" : true,
            "name" : "lambert14SG.002",
            "pbrMetallicRoughness" : {
                "baseColorFactor" : [
                    0.3324509859085083,
                    0.23073995113372803,
                    0.0761854499578476,
                    1
                ],
                "metallicFactor" : 0
            }
        },
        {
            "doubleSided" : true,
            "name" : "pasted__lambert10SG",
            "pbrMetallicRoughness" : {
                "baseColorFactor" : [
                    0.14000000059604645,
                    0.12999999523162842,
                    0.029999999329447746,
                    1
                ],
                "metallicFactor" : 0
            }
        },
        {
            "doubleSided" : true,
            "name" : "lambert11SG.002",
            "pbrMetallicRoughness" : {
                "baseColorFactor" : [
                    0.23000000417232513,
                    0.23999999463558197,
                    0.23999999463558197,
                    1
                ],
                "metallicFactor" : 0
            }
        },
        {
            "doubleSided" : true,
            "name" : "pasted__lambert7SG",
            "pbrMetallicRoughness" : {
                "baseColorFactor" : [
                    0.11999999731779099,
                    0.07000000029802322,
                    0.029999999329447746,
                    1
                ],
                "metallicFactor" : 0
            }
        },
        {
            "doubleSided" : true,
            "name" : "pasted__lambert9SG",
            "pbrMetallicRoughness" : {
                "baseColorFactor" : [
                    0.07999999821186066,
                    0.09000000357627869,
                    0.019999999552965164,
                    1
                ],
                "metallicFactor" : 0
            }
        },
        {
            "doubleSided" : true,
            "name" : "pasted__lambert4SG1",
            "pbrMetallicRoughness" : {
                "baseColorFactor" : [
                    0.27000001072883606,
                    0.15000000596046448,
                    0.03999999910593033,
                    1
                ],
                "metallicFactor" : 0
            }
        },
        {
            "doubleSided" : true,
            "name" : "pasted__lambert5SG",
            "pbrMetallicRoughness" : {
                "baseColorFactor" : [
                    0.12999999523162842,
                    0.1599999964237213,
                    0.05999999865889549,
                    1
                ],
                "metallicFactor" : 0
            }
        },
        {
            "doubleSided" : true,
            "name" : "pasted__lambert11SG",
            "pbrMetallicRoughness" : {
                "baseColorFactor" : [
                    0.23000000417232513,
                    0.23999999463558197,
                    0.23999999463558197,
                    1
                ],
                "metallicFactor" : 0
            }
        },
        {
            "doubleSided" : true,
            "name" : "pasted__lambert8SG",
            "pbrMetallicRoughness" : {
                "baseColorFactor" : [
                    0.1899999976158142,
                    0.10000000149011612,
                    0.019999999552965164,
                    1
                ],
                "metallicFactor" : 0
            }
        },
        {
            "doubleSided" : true,
            "name" : "pasted__pasted__lambert4SG",
            "pbrMetallicRoughness" : {
                "baseColorFactor" : [
                    0.27000001072883606,
                    0.15000000596046448,
                    0.03999999910593033,
                    1
                ],
                "metallicFactor" : 0
            }
        },
        {
            "doubleSided" : true,
            "name" : "pasted__lambert6SG1",
            "pbrMetallicRoughness" : {
                "baseColorFactor" : [
                    0.17000000178813934,
                    0.1899999976158142,
                    0.10000000149011612,
                    1
                ],
                "metallicFactor" : 0
            }
        }
    ],
    "meshes" : [
        {
            "name" : "canoeTerrainPost",
            "primitives" : [
                {
                    "attributes" : {
                        "POSITION" : 0,
                        "NORMAL" : 1,
                        "TEXCOORD_0" : 2
                    },
                    "indices" : 3,
                    "material" : 0
                },
                {
                    "attributes" : {
                        "POSITION" : 4,
                        "NORMAL" : 5,
                        "TEXCOORD_0" : 6
                    },
                    "indices" : 7,
                    "material" : 1
                },
                {
                    "attributes" : {
                        "POSITION" : 8,
                        "NORMAL" : 9,
                        "TEXCOORD_0" : 10
                    },
                    "indices" : 11,
                    "material" : 2
                },
                {
                    "attributes" : {
                        "POSITION" : 12,
                        "NORMAL" : 13,
                        "TEXCOORD_0" : 14
                    },
                    "indices" : 15,
                    "material" : 3
                },
                {
                    "attributes" : {
                        "POSITION" : 16,
                        "NORMAL" : 17,
                        "TEXCOORD_0" : 18
                    },
                    "indices" : 19,
                    "material" : 4
                },
                {
                    "attributes" : {
                        "POSITION" : 20,
                        "NORMAL" : 21,
                        "TEXCOORD_0" : 22
                    },
                    "indices" : 23,
                    "material" : 5
                },
                {
                    "attributes" : {
                        "POSITION" : 24,
                        "NORMAL" : 25,
                        "TEXCOORD_0" : 26
                    },
                    "indices" : 27,
                    "material" : 6
                },
                {
                    "attributes" : {
                        "POSITION" : 28,
                        "NORMAL" : 29,
                        "TEXCOORD_0" : 30
                    },
                    "indices" : 31,
                    "material" : 7
                },
                {
                    "attributes" : {
                        "POSITION" : 32,
                        "NORMAL" : 33,
                        "TEXCOORD_0" : 34
                    },
                    "indices" : 35,
                    "material" : 8
                },
                {
                    "attributes" : {
                        "POSITION" : 36,
                        "NORMAL" : 37,
                        "TEXCOORD_0" : 38
                    },
                    "indices" : 39,
                    "material" : 9
                },
                {
                    "attributes" : {
                        "POSITION" : 40,
                        "NORMAL" : 41,
                        "TEXCOORD_0" : 42
                    },
                    "indices" : 43,
                    "material" : 10
                }
            ]
        }
    ],
    "accessors" : [
        {
            "bufferView" : 0,
            "componentType" : 5126,
            "count" : 210,
            "max" : [
                35.43404006958008,
                85.08338165283203,
                16.78985595703125
            ],
            "min" : [
                0,
                -85.08338165283203,
                -5.337626934051514
            ],
            "type" : "VEC3"
        },
        {
            "bufferView" : 1,
            "componentType" : 5126,
            "count" : 210,
            "type" : "VEC3"
        },
        {
            "bufferView" : 2,
            "componentType" : 5126,
            "count" : 210,
            "type" : "VEC2"
        },
        {
            "bufferView" : 3,
            "componentType" : 5123,
            "count" : 1080,
            "type" : "SCALAR"
        },
        {
            "bufferView" : 4,
            "componentType" : 5126,
            "count" : 4170,
            "max" : [
                78.74230194091797,
                85.08340454101562,
                -2.9750590324401855
            ],
            "min" : [
                35.43404006958008,
                -85.08338165283203,
                -14.993210792541504
            ],
            "type" : "VEC3"
        },
        {
            "bufferView" : 5,
            "componentType" : 5126,
            "count" : 4170,
            "type" : "VEC3"
        },
        {
            "bufferView" : 6,
            "componentType" : 5126,
            "count" : 4170,
            "type" : "VEC2"
        },
        {
            "bufferView" : 7,
            "componentType" : 5123,
            "count" : 4770,
            "type" : "SCALAR"
        },
        {
            "bufferView" : 8,
            "componentType" : 5126,
            "count" : 1188,
            "max" : [
                29.679933547973633,
                79.79771423339844,
                -0.9757980108261108
            ],
            "min" : [
                18.78407859802246,
                -70.63800048828125,
                -5.851500988006592
            ],
            "type" : "VEC3"
        },
        {
            "bufferView" : 9,
            "componentType" : 5126,
            "count" : 1188,
            "type" : "VEC3"
        },
        {
            "bufferView" : 10,
            "componentType" : 5126,
            "count" : 1188,
            "type" : "VEC2"
        },
        {
            "bufferView" : 11,
            "componentType" : 5123,
            "count" : 1188,
            "type" : "SCALAR"
        },
        {
            "bufferView" : 12,
            "componentType" : 5126,
            "count" : 4524,
            "max" : [
                76.83125305175781,
                67.472900390625,
                -2.614691972732544
            ],
            "min" : [
                36.38951873779297,
                -79.04457092285156,
                -16.998079299926758
            ],
            "type" : "VEC3"
        },
        {
            "bufferView" : 13,
            "componentType" : 5126,
            "count" : 4524,
            "type" : "VEC3"
        },
        {
            "bufferView" : 14,
            "componentType" : 5126,
            "count" : 4524,
            "type" : "VEC2"
        },
        {
            "bufferView" : 15,
            "componentType" : 5123,
            "count" : 5535,
            "type" : "SCALAR"
        },
        {
            "bufferView" : 16,
            "componentType" : 5126,
            "count" : 10620,
            "max" : [
                78.31111145019531,
                78.73973846435547,
                -3.9699349403381348
            ],
            "min" : [
                34.909664154052734,
                -80.49227142333984,
                -20.040035247802734
            ],
            "type" : "VEC3"
        },
        {
            "bufferView" : 17,
            "componentType" : 5126,
            "count" : 10620,
            "type" : "VEC3"
        },
        {
            "bufferView" : 18,
            "componentType" : 5126,
            "count" : 10620,
            "type" : "VEC2"
        },
        {
            "bufferView" : 19,
            "componentType" : 5123,
            "count" : 10620,
            "type" : "SCALAR"
        },
        {
            "bufferView" : 20,
            "componentType" : 5126,
            "count" : 5285,
            "max" : [
                70.76535034179688,
                74.80950927734375,
                -2.6031689643859863
            ],
            "min" : [
                42.45541763305664,
                -78.56996154785156,
                -18.884004592895508
            ],
            "type" : "VEC3"
        },
        {
            "bufferView" : 21,
            "componentType" : 5126,
            "count" : 5285,
            "type" : "VEC3"
        },
        {
            "bufferView" : 22,
            "componentType" : 5126,
            "count" : 5285,
            "type" : "VEC2"
        },
        {
            "bufferView" : 23,
            "componentType" : 5123,
            "count" : 7155,
            "type" : "SCALAR"
        },
        {
            "bufferView" : 24,
            "componentType" : 5126,
            "count" : 2648,
            "max" : [
                62.268009185791016,
                75.32066345214844,
                -3.6759750843048096
            ],
            "min" : [
                50.952762603759766,
                -77.04325866699219,
                -17.21853256225586
            ],
            "type" : "VEC3"
        },
        {
            "bufferView" : 25,
            "componentType" : 5126,
            "count" : 2648,
            "type" : "VEC3"
        },
        {
            "bufferView" : 26,
            "componentType" : 5126,
            "count" : 2648,
            "type" : "VEC2"
        },
        {
            "bufferView" : 27,
            "componentType" : 5123,
            "count" : 4680,
            "type" : "SCALAR"
        },
        {
            "bufferView" : 28,
            "componentType" : 5126,
            "count" : 1188,
            "max" : [
                66.03190612792969,
                83.68509674072266,
                -2.701219081878662
            ],
            "min" : [
                47.188865661621094,
                -68.55093383789062,
                -5.164003849029541
            ],
            "type" : "VEC3"
        },
        {
            "bufferView" : 29,
            "componentType" : 5126,
            "count" : 1188,
            "type" : "VEC3"
        },
        {
            "bufferView" : 30,
            "componentType" : 5126,
            "count" : 1188,
            "type" : "VEC2"
        },
        {
            "bufferView" : 31,
            "componentType" : 5123,
            "count" : 1188,
            "type" : "SCALAR"
        },
        {
            "bufferView" : 32,
            "componentType" : 5126,
            "count" : 2574,
            "max" : [
                72.2156753540039,
                77.7267074584961,
                -2.614691972732544
            ],
            "min" : [
                41.00510025024414,
                -48.853519439697266,
                -16.998079299926758
            ],
            "type" : "VEC3"
        },
        {
            "bufferView" : 33,
            "componentType" : 5126,
            "count" : 2574,
            "type" : "VEC3"
        },
        {
            "bufferView" : 34,
            "componentType" : 5126,
            "count" : 2574,
            "type" : "VEC2"
        },
        {
            "bufferView" : 35,
            "componentType" : 5123,
            "count" : 2592,
            "type" : "SCALAR"
        },
        {
            "bufferView" : 36,
            "componentType" : 5126,
            "count" : 666,
            "max" : [
                75.62152099609375,
                63.651695251464844,
                -2.6475539207458496
            ],
            "min" : [
                37.5992546081543,
                -49.51129150390625,
                -8.536659240722656
            ],
            "type" : "VEC3"
        },
        {
            "bufferView" : 37,
            "componentType" : 5126,
            "count" : 666,
            "type" : "VEC3"
        },
        {
            "bufferView" : 38,
            "componentType" : 5126,
            "count" : 666,
            "type" : "VEC2"
        },
        {
            "bufferView" : 39,
            "componentType" : 5123,
            "count" : 666,
            "type" : "SCALAR"
        },
        {
            "bufferView" : 40,
            "componentType" : 5126,
            "count" : 1008,
            "max" : [
                61.280826568603516,
                64.51614379882812,
                -6.6132988929748535
            ],
            "min" : [
                51.939945220947266,
                -49.852935791015625,
                -11.809149742126465
            ],
            "type" : "VEC3"
        },
        {
            "bufferView" : 41,
            "componentType" : 5126,
            "count" : 1008,
            "type" : "VEC3"
        },
        {
            "bufferView" : 42,
            "componentType" : 5126,
            "count" : 1008,
            "type" : "VEC2"
        },
        {
            "bufferView" : 43,
            "componentType" : 5123,
            "count" : 1008,
            "type" : "SCALAR"
        }
    ],
    "bufferViews" : [
        {
            "buffer" : 0,
            "byteLength" : 2520,
            "byteOffset" : 0
        },
        {
            "buffer" : 0,
            "byteLength" : 2520,
            "byteOffset" : 2520
        },
        {
            "buffer" : 0,
            "byteLength" : 1680,
            "byteOffset" : 5040
        },
        {
            "buffer" : 0,
            "byteLength" : 2160,
            "byteOffset" : 6720
        },
        {
            "buffer" : 0,
            "byteLength" : 50040,
            "byteOffset" : 8880
        },
        {
            "buffer" : 0,
            "byteLength" : 50040,
            "byteOffset" : 58920
        },
        {
            "buffer" : 0,
            "byteLength" : 33360,
            "byteOffset" : 108960
        },
        {
            "buffer" : 0,
            "byteLength" : 9540,
            "byteOffset" : 142320
        },
        {
            "buffer" : 0,
            "byteLength" : 14256,
            "byteOffset" : 151860
        },
        {
            "buffer" : 0,
            "byteLength" : 14256,
            "byteOffset" : 166116
        },
        {
            "buffer" : 0,
            "byteLength" : 9504,
            "byteOffset" : 180372
        },
        {
            "buffer" : 0,
            "byteLength" : 2376,
            "byteOffset" : 189876
        },
        {
            "buffer" : 0,
            "byteLength" : 54288,
            "byteOffset" : 192252
        },
        {
            "buffer" : 0,
            "byteLength" : 54288,
            "byteOffset" : 246540
        },
        {
            "buffer" : 0,
            "byteLength" : 36192,
            "byteOffset" : 300828
        },
        {
            "buffer" : 0,
            "byteLength" : 11070,
            "byteOffset" : 337020
        },
        {
            "buffer" : 0,
            "byteLength" : 127440,
            "byteOffset" : 348092
        },
        {
            "buffer" : 0,
            "byteLength" : 127440,
            "byteOffset" : 475532
        },
        {
            "buffer" : 0,
            "byteLength" : 84960,
            "byteOffset" : 602972
        },
        {
            "buffer" : 0,
            "byteLength" : 21240,
            "byteOffset" : 687932
        },
        {
            "buffer" : 0,
            "byteLength" : 63420,
            "byteOffset" : 709172
        },
        {
            "buffer" : 0,
            "byteLength" : 63420,
            "byteOffset" : 772592
        },
        {
            "buffer" : 0,
            "byteLength" : 42280,
            "byteOffset" : 836012
        },
        {
            "buffer" : 0,
            "byteLength" : 14310,
            "byteOffset" : 878292
        },
        {
            "buffer" : 0,
            "byteLength" : 31776,
            "byteOffset" : 892604
        },
        {
            "buffer" : 0,
            "byteLength" : 31776,
            "byteOffset" : 924380
        },
        {
            "buffer" : 0,
            "byteLength" : 21184,
            "byteOffset" : 956156
        },
        {
            "buffer" : 0,
            "byteLength" : 9360,
            "byteOffset" : 977340
        },
        {
            "buffer" : 0,
            "byteLength" : 14256,
            "byteOffset" : 986700
        },
        {
            "buffer" : 0,
            "byteLength" : 14256,
            "byteOffset" : 1000956
        },
        {
            "buffer" : 0,
            "byteLength" : 9504,
            "byteOffset" : 1015212
        },
        {
            "buffer" : 0,
            "byteLength" : 2376,
            "byteOffset" : 1024716
        },
        {
            "buffer" : 0,
            "byteLength" : 30888,
            "byteOffset" : 1027092
        },
        {
            "buffer" : 0,
            "byteLength" : 30888,
            "byteOffset" : 1057980
        },
        {
            "buffer" : 0,
            "byteLength" : 20592,
            "byteOffset" : 1088868
        },
        {
            "buffer" : 0,
            "byteLength" : 5184,
            "byteOffset" : 1109460
        },
        {
            "buffer" : 0,
            "byteLength" : 7992,
            "byteOffset" : 1114644
        },
        {
            "buffer" : 0,
            "byteLength" : 7992,
            "byteOffset" : 1122636
        },
        {
            "buffer" : 0,
            "byteLength" : 5328,
            "byteOffset" : 1130628
        },
        {
            "buffer" : 0,
            "byteLength" : 1332,
            "byteOffset" : 1135956
        },
        {
            "buffer" : 0,
            "byteLength" : 12096,
            "byteOffset" : 1137288
        },
        {
            "buffer" : 0,
            "byteLength" : 12096,
            "byteOffset" : 1149384
        },
        {
            "buffer" : 0,
            "byteLength" : 8064,
            "byteOffset" : 1161480
        },
        {
            "buffer" : 0,
            "byteLength" : 2016,
            "byteOffset" : 1169544
        }
    ],
    "buffers" : [
        {
            "byteLength" : 1171560,
            "uri" : "data:application/octet-stream;base64,"
        }
    ]
}
