{
    "asset" : {
        "generator" : "Khronos glTF Blender I/O v1.8.19",
        "version" : "2.0"
    },
    "scene" : 0,
    "scenes" : [
        {
            "name" : "Scene",
            "nodes" : [
                0
            ]
        }
    ],
    "nodes" : [
        {
            "mesh" : 0,
            "name" : "postcontact trees",
            "rotation" : [
                0.7071068286895752,
                0,
                0,
                0.7071067094802856
            ]
        }
    ],
    "materials" : [
        {
            "doubleSided" : true,
            "name" : "precontact_trees_version_2:pasted__lambert7SG",
            "pbrMetallicRoughness" : {
                "baseColorFactor" : [
                    0.14000000059604645,
                    0.07999999821186066,
                    0.019999999552965164,
                    1
                ],
                "metallicFactor" : 0
            }
        },
        {
            "doubleSided" : true,
            "name" : "precontact_trees_version_2:pasted__lambert4SG",
            "pbrMetallicRoughness" : {
                "baseColorFactor" : [
                    0.23999999463558197,
                    0.12999999523162842,
                    0.019999999552965164,
                    1
                ],
                "metallicFactor" : 0
            }
        },
        {
            "doubleSided" : true,
            "name" : "precontact_trees_version_2:pasted__lambert9SG",
            "pbrMetallicRoughness" : {
                "baseColorFactor" : [
                    0.1899999976158142,
                    0.23000000417232513,
                    0,
                    1
                ],
                "metallicFactor" : 0
            }
        },
        {
            "doubleSided" : true,
            "name" : "precontact_trees_version_2:pasted__lambert5SG",
            "pbrMetallicRoughness" : {
                "baseColorFactor" : [
                    0.1899999976158142,
                    0.2199999988079071,
                    0,
                    1
                ],
                "metallicFactor" : 0
            }
        },
        {
            "doubleSided" : true,
            "name" : "precontact_trees_version_2:pasted__lambert3SG",
            "pbrMetallicRoughness" : {
                "baseColorFactor" : [
                    0.2800000011920929,
                    0.3199999928474426,
                    0.05000000074505806,
                    1
                ],
                "metallicFactor" : 0
            }
        },
        {
            "doubleSided" : true,
            "name" : "precontact_trees_version_2:pasted__lambert2SG",
            "pbrMetallicRoughness" : {
                "baseColorFactor" : [
                    0.27000001072883606,
                    0.029999999329447746,
                    0.07999999821186066,
                    1
                ],
                "metallicFactor" : 0
            }
        },
        {
            "doubleSided" : true,
            "name" : "precontact_trees_version_2:pasted__lambert11SG1",
            "pbrMetallicRoughness" : {
                "baseColorFactor" : [
                    0.23000000417232513,
                    0.23999999463558197,
                    0.23999999463558197,
                    1
                ],
                "metallicFactor" : 0
            }
        }
    ],
    "meshes" : [
        {
            "name" : "postcontact trees",
            "primitives" : [
                {
                    "attributes" : {
                        "POSITION" : 0,
                        "NORMAL" : 1,
                        "TEXCOORD_0" : 2
                    },
                    "indices" : 3,
                    "material" : 0
                },
                {
                    "attributes" : {
                        "POSITION" : 4,
                        "NORMAL" : 5,
                        "TEXCOORD_0" : 6
                    },
                    "indices" : 7,
                    "material" : 1
                },
                {
                    "attributes" : {
                        "POSITION" : 8,
                        "NORMAL" : 9,
                        "TEXCOORD_0" : 10
                    },
                    "indices" : 11,
                    "material" : 2
                },
                {
                    "attributes" : {
                        "POSITION" : 12,
                        "NORMAL" : 13,
                        "TEXCOORD_0" : 14
                    },
                    "indices" : 15,
                    "material" : 3
                },
                {
                    "attributes" : {
                        "POSITION" : 16,
                        "NORMAL" : 17,
                        "TEXCOORD_0" : 18
                    },
                    "indices" : 19,
                    "material" : 4
                },
                {
                    "attributes" : {
                        "POSITION" : 20,
                        "NORMAL" : 21,
                        "TEXCOORD_0" : 22
                    },
                    "indices" : 23,
                    "material" : 5
                },
                {
                    "attributes" : {
                        "POSITION" : 24,
                        "NORMAL" : 25,
                        "TEXCOORD_0" : 26
                    },
                    "indices" : 27,
                    "material" : 6
                }
            ]
        }
    ],
    "accessors" : [
        {
            "bufferView" : 0,
            "componentType" : 5126,
            "count" : 436,
            "max" : [
                49.99162673950195,
                40.17770004272461,
                0
            ],
            "min" : [
                -46.058780670166016,
                -23.163490295410156,
                -5.335907936096191
            ],
            "type" : "VEC3"
        },
        {
            "bufferView" : 1,
            "componentType" : 5126,
            "count" : 436,
            "type" : "VEC3"
        },
        {
            "bufferView" : 2,
            "componentType" : 5126,
            "count" : 436,
            "type" : "VEC2"
        },
        {
            "bufferView" : 3,
            "componentType" : 5123,
            "count" : 750,
            "type" : "SCALAR"
        },
        {
            "bufferView" : 4,
            "componentType" : 5126,
            "count" : 6314,
            "max" : [
                51.57381820678711,
                37.96857452392578,
                0
            ],
            "min" : [
                -39.838191986083984,
                -29.936946868896484,
                -20.9411678314209
            ],
            "type" : "VEC3"
        },
        {
            "bufferView" : 5,
            "componentType" : 5126,
            "count" : 6314,
            "type" : "VEC3"
        },
        {
            "bufferView" : 6,
            "componentType" : 5126,
            "count" : 6314,
            "type" : "VEC2"
        },
        {
            "bufferView" : 7,
            "componentType" : 5123,
            "count" : 10068,
            "type" : "SCALAR"
        },
        {
            "bufferView" : 8,
            "componentType" : 5126,
            "count" : 1938,
            "max" : [
                53.06939697265625,
                43.302852630615234,
                -1.558087944984436
            ],
            "min" : [
                -48.17094802856445,
                -25.287372589111328,
                -17.037256240844727
            ],
            "type" : "VEC3"
        },
        {
            "bufferView" : 9,
            "componentType" : 5126,
            "count" : 1938,
            "type" : "VEC3"
        },
        {
            "bufferView" : 10,
            "componentType" : 5126,
            "count" : 1938,
            "type" : "VEC2"
        },
        {
            "bufferView" : 11,
            "componentType" : 5123,
            "count" : 3024,
            "type" : "SCALAR"
        },
        {
            "bufferView" : 12,
            "componentType" : 5126,
            "count" : 4622,
            "max" : [
                52.69068908691406,
                37.968875885009766,
                -6.614044189453125
            ],
            "min" : [
                -42.049869537353516,
                -32.018035888671875,
                -24.144546508789062
            ],
            "type" : "VEC3"
        },
        {
            "bufferView" : 13,
            "componentType" : 5126,
            "count" : 4622,
            "type" : "VEC3"
        },
        {
            "bufferView" : 14,
            "componentType" : 5126,
            "count" : 4622,
            "type" : "VEC2"
        },
        {
            "bufferView" : 15,
            "componentType" : 5123,
            "count" : 5676,
            "type" : "SCALAR"
        },
        {
            "bufferView" : 16,
            "componentType" : 5126,
            "count" : 8680,
            "max" : [
                43.500675201416016,
                45.67323684692383,
                0.0008789999992586672
            ],
            "min" : [
                -45.16896057128906,
                -42.64592361450195,
                -1.9101890325546265
            ],
            "type" : "VEC3"
        },
        {
            "bufferView" : 17,
            "componentType" : 5126,
            "count" : 8680,
            "type" : "VEC3"
        },
        {
            "bufferView" : 18,
            "componentType" : 5126,
            "count" : 8680,
            "type" : "VEC2"
        },
        {
            "bufferView" : 19,
            "componentType" : 5123,
            "count" : 13020,
            "type" : "SCALAR"
        },
        {
            "bufferView" : 20,
            "componentType" : 5126,
            "count" : 12552,
            "max" : [
                32.68158721923828,
                12.92386245727539,
                0
            ],
            "min" : [
                -19.717571258544922,
                -9.550188064575195,
                -4.97279691696167
            ],
            "type" : "VEC3"
        },
        {
            "bufferView" : 21,
            "componentType" : 5126,
            "count" : 12552,
            "type" : "VEC3"
        },
        {
            "bufferView" : 22,
            "componentType" : 5126,
            "count" : 12552,
            "type" : "VEC2"
        },
        {
            "bufferView" : 23,
            "componentType" : 5123,
            "count" : 18954,
            "type" : "SCALAR"
        },
        {
            "bufferView" : 24,
            "componentType" : 5126,
            "count" : 1980,
            "max" : [
                52.90639877319336,
                38.89934539794922,
                0.02978700026869774
            ],
            "min" : [
                -49.34381866455078,
                -15.39981746673584,
                -1.2095309495925903
            ],
            "type" : "VEC3"
        },
        {
            "bufferView" : 25,
            "componentType" : 5126,
            "count" : 1980,
            "type" : "VEC3"
        },
        {
            "bufferView" : 26,
            "componentType" : 5126,
            "count" : 1980,
            "type" : "VEC2"
        },
        {
            "bufferView" : 27,
            "componentType" : 5123,
            "count" : 1980,
            "type" : "SCALAR"
        }
    ],
    "bufferViews" : [
        {
            "buffer" : 0,
            "byteLength" : 5232,
            "byteOffset" : 0
        },
        {
            "buffer" : 0,
            "byteLength" : 5232,
            "byteOffset" : 5232
        },
        {
            "buffer" : 0,
            "byteLength" : 3488,
            "byteOffset" : 10464
        },
        {
            "buffer" : 0,
            "byteLength" : 1500,
            "byteOffset" : 13952
        },
        {
            "buffer" : 0,
            "byteLength" : 75768,
            "byteOffset" : 15452
        },
        {
            "buffer" : 0,
            "byteLength" : 75768,
            "byteOffset" : 91220
        },
        {
            "buffer" : 0,
            "byteLength" : 50512,
            "byteOffset" : 166988
        },
        {
            "buffer" : 0,
            "byteLength" : 20136,
            "byteOffset" : 217500
        },
        {
            "buffer" : 0,
            "byteLength" : 23256,
            "byteOffset" : 237636
        },
        {
            "buffer" : 0,
            "byteLength" : 23256,
            "byteOffset" : 260892
        },
        {
            "buffer" : 0,
            "byteLength" : 15504,
            "byteOffset" : 284148
        },
        {
            "buffer" : 0,
            "byteLength" : 6048,
            "byteOffset" : 299652
        },
        {
            "buffer" : 0,
            "byteLength" : 55464,
            "byteOffset" : 305700
        },
        {
            "buffer" : 0,
            "byteLength" : 55464,
            "byteOffset" : 361164
        },
        {
            "buffer" : 0,
            "byteLength" : 36976,
            "byteOffset" : 416628
        },
        {
            "buffer" : 0,
            "byteLength" : 11352,
            "byteOffset" : 453604
        },
        {
            "buffer" : 0,
            "byteLength" : 104160,
            "byteOffset" : 464956
        },
        {
            "buffer" : 0,
            "byteLength" : 104160,
            "byteOffset" : 569116
        },
        {
            "buffer" : 0,
            "byteLength" : 69440,
            "byteOffset" : 673276
        },
        {
            "buffer" : 0,
            "byteLength" : 26040,
            "byteOffset" : 742716
        },
        {
            "buffer" : 0,
            "byteLength" : 150624,
            "byteOffset" : 768756
        },
        {
            "buffer" : 0,
            "byteLength" : 150624,
            "byteOffset" : 919380
        },
        {
            "buffer" : 0,
            "byteLength" : 100416,
            "byteOffset" : 1070004
        },
        {
            "buffer" : 0,
            "byteLength" : 37908,
            "byteOffset" : 1170420
        },
        {
            "buffer" : 0,
            "byteLength" : 23760,
            "byteOffset" : 1208328
        },
        {
            "buffer" : 0,
            "byteLength" : 23760,
            "byteOffset" : 1232088
        },
        {
            "buffer" : 0,
            "byteLength" : 15840,
            "byteOffset" : 1255848
        },
        {
            "buffer" : 0,
            "byteLength" : 3960,
            "byteOffset" : 1271688
        }
    ],
    "buffers" : [
        {
            "byteLength" : 1275648,
            "uri" : "data:application/octet-stream;base64,"
        }
    ]
}
