{
    "asset" : {
        "generator" : "Khronos glTF Blender I/O v1.8.19",
        "version" : "2.0"
    },
    "scene" : 0,
    "scenes" : [
        {
            "name" : "Scene",
            "nodes" : [
                0
            ]
        }
    ],
    "nodes" : [
        {
            "mesh" : 0,
            "name" : "precontact trees",
            "rotation" : [
                0.7071068286895752,
                0,
                0,
                0.7071067094802856
            ]
        }
    ],
    "materials" : [
        {
            "doubleSided" : true,
            "name" : "pasted__lambert9SG",
            "pbrMetallicRoughness" : {
                "baseColorFactor" : [
                    0.23000000417232513,
                    0.33000001311302185,
                    0,
                    1
                ],
                "metallicFactor" : 0
            }
        },
        {
            "doubleSided" : true,
            "name" : "pasted__lambert7SG",
            "pbrMetallicRoughness" : {
                "baseColorFactor" : [
                    0.20999999344348907,
                    0.11999999731779099,
                    0.029999999329447746,
                    1
                ],
                "metallicFactor" : 0
            }
        },
        {
            "doubleSided" : true,
            "name" : "pasted__lambert2SG",
            "pbrMetallicRoughness" : {
                "baseColorFactor" : [
                    0.27000001072883606,
                    0.029999999329447746,
                    0.07999999821186066,
                    1
                ],
                "metallicFactor" : 0
            }
        },
        {
            "doubleSided" : true,
            "name" : "pasted__lambert4SG",
            "pbrMetallicRoughness" : {
                "baseColorFactor" : [
                    0.23999999463558197,
                    0.12999999523162842,
                    0.019999999552965164,
                    1
                ],
                "metallicFactor" : 0
            }
        },
        {
            "doubleSided" : true,
            "name" : "pasted__lambert5SG",
            "pbrMetallicRoughness" : {
                "baseColorFactor" : [
                    0.14000000059604645,
                    0.2199999988079071,
                    0,
                    1
                ],
                "metallicFactor" : 0
            }
        },
        {
            "doubleSided" : true,
            "name" : "pasted__lambert3SG",
            "pbrMetallicRoughness" : {
                "baseColorFactor" : [
                    0.25,
                    0.3499999940395355,
                    0.029999999329447746,
                    1
                ],
                "metallicFactor" : 0
            }
        },
        {
            "doubleSided" : true,
            "name" : "pasted__lambert11SG1",
            "pbrMetallicRoughness" : {
                "baseColorFactor" : [
                    0.23000000417232513,
                    0.23999999463558197,
                    0.23999999463558197,
                    1
                ],
                "metallicFactor" : 0
            }
        }
    ],
    "meshes" : [
        {
            "name" : "precontact trees",
            "primitives" : [
                {
                    "attributes" : {
                        "POSITION" : 0,
                        "NORMAL" : 1,
                        "TEXCOORD_0" : 2
                    },
                    "indices" : 3,
                    "material" : 0
                },
                {
                    "attributes" : {
                        "POSITION" : 4,
                        "NORMAL" : 5,
                        "TEXCOORD_0" : 6
                    },
                    "indices" : 7,
                    "material" : 1
                },
                {
                    "attributes" : {
                        "POSITION" : 8,
                        "NORMAL" : 9,
                        "TEXCOORD_0" : 10
                    },
                    "indices" : 11,
                    "material" : 2
                },
                {
                    "attributes" : {
                        "POSITION" : 12,
                        "NORMAL" : 13,
                        "TEXCOORD_0" : 14
                    },
                    "indices" : 15,
                    "material" : 3
                },
                {
                    "attributes" : {
                        "POSITION" : 16,
                        "NORMAL" : 17,
                        "TEXCOORD_0" : 18
                    },
                    "indices" : 19,
                    "material" : 4
                },
                {
                    "attributes" : {
                        "POSITION" : 20,
                        "NORMAL" : 21,
                        "TEXCOORD_0" : 22
                    },
                    "indices" : 23,
                    "material" : 5
                },
                {
                    "attributes" : {
                        "POSITION" : 24,
                        "NORMAL" : 25,
                        "TEXCOORD_0" : 26
                    },
                    "indices" : 27,
                    "material" : 6
                }
            ]
        }
    ],
    "accessors" : [
        {
            "bufferView" : 0,
            "componentType" : 5126,
            "count" : 3138,
            "max" : [
                53.06939697265625,
                44.02542495727539,
                -1.558087944984436
            ],
            "min" : [
                -48.17094802856445,
                -25.287372589111328,
                -17.037256240844727
            ],
            "type" : "VEC3"
        },
        {
            "bufferView" : 1,
            "componentType" : 5126,
            "count" : 3138,
            "type" : "VEC3"
        },
        {
            "bufferView" : 2,
            "componentType" : 5126,
            "count" : 3138,
            "type" : "VEC2"
        },
        {
            "bufferView" : 3,
            "componentType" : 5123,
            "count" : 4896,
            "type" : "SCALAR"
        },
        {
            "bufferView" : 4,
            "componentType" : 5126,
            "count" : 420,
            "max" : [
                49.99162673950195,
                41.307334899902344,
                0
            ],
            "min" : [
                -46.058780670166016,
                -23.163490295410156,
                -5.335907936096191
            ],
            "type" : "VEC3"
        },
        {
            "bufferView" : 5,
            "componentType" : 5126,
            "count" : 420,
            "type" : "VEC3"
        },
        {
            "bufferView" : 6,
            "componentType" : 5126,
            "count" : 420,
            "type" : "VEC2"
        },
        {
            "bufferView" : 7,
            "componentType" : 5123,
            "count" : 684,
            "type" : "SCALAR"
        },
        {
            "bufferView" : 8,
            "componentType" : 5126,
            "count" : 15670,
            "max" : [
                32.68158721923828,
                12.92386245727539,
                0
            ],
            "min" : [
                -19.717571258544922,
                -9.550188064575195,
                -4.97279691696167
            ],
            "type" : "VEC3"
        },
        {
            "bufferView" : 9,
            "componentType" : 5126,
            "count" : 15670,
            "type" : "VEC3"
        },
        {
            "bufferView" : 10,
            "componentType" : 5126,
            "count" : 15670,
            "type" : "VEC2"
        },
        {
            "bufferView" : 11,
            "componentType" : 5123,
            "count" : 23610,
            "type" : "SCALAR"
        },
        {
            "bufferView" : 12,
            "componentType" : 5126,
            "count" : 6086,
            "max" : [
                51.57381820678711,
                35.7030029296875,
                0
            ],
            "min" : [
                -39.838191986083984,
                -29.936946868896484,
                -20.9411678314209
            ],
            "type" : "VEC3"
        },
        {
            "bufferView" : 13,
            "componentType" : 5126,
            "count" : 6086,
            "type" : "VEC3"
        },
        {
            "bufferView" : 14,
            "componentType" : 5126,
            "count" : 6086,
            "type" : "VEC2"
        },
        {
            "bufferView" : 15,
            "componentType" : 5123,
            "count" : 9228,
            "type" : "SCALAR"
        },
        {
            "bufferView" : 16,
            "componentType" : 5126,
            "count" : 5082,
            "max" : [
                52.69068908691406,
                37.968875885009766,
                -6.614044189453125
            ],
            "min" : [
                -42.049869537353516,
                -32.018035888671875,
                -24.144546508789062
            ],
            "type" : "VEC3"
        },
        {
            "bufferView" : 17,
            "componentType" : 5126,
            "count" : 5082,
            "type" : "VEC3"
        },
        {
            "bufferView" : 18,
            "componentType" : 5126,
            "count" : 5082,
            "type" : "VEC2"
        },
        {
            "bufferView" : 19,
            "componentType" : 5123,
            "count" : 6240,
            "type" : "SCALAR"
        },
        {
            "bufferView" : 20,
            "componentType" : 5126,
            "count" : 8680,
            "max" : [
                43.500675201416016,
                45.67323684692383,
                0.0008789999992586672
            ],
            "min" : [
                -45.16896057128906,
                -42.64592361450195,
                -1.9101890325546265
            ],
            "type" : "VEC3"
        },
        {
            "bufferView" : 21,
            "componentType" : 5126,
            "count" : 8680,
            "type" : "VEC3"
        },
        {
            "bufferView" : 22,
            "componentType" : 5126,
            "count" : 8680,
            "type" : "VEC2"
        },
        {
            "bufferView" : 23,
            "componentType" : 5123,
            "count" : 13020,
            "type" : "SCALAR"
        },
        {
            "bufferView" : 24,
            "componentType" : 5126,
            "count" : 1980,
            "max" : [
                52.90639877319336,
                38.89934539794922,
                0.02978700026869774
            ],
            "min" : [
                -49.34381866455078,
                -15.39981746673584,
                -1.2095309495925903
            ],
            "type" : "VEC3"
        },
        {
            "bufferView" : 25,
            "componentType" : 5126,
            "count" : 1980,
            "type" : "VEC3"
        },
        {
            "bufferView" : 26,
            "componentType" : 5126,
            "count" : 1980,
            "type" : "VEC2"
        },
        {
            "bufferView" : 27,
            "componentType" : 5123,
            "count" : 1980,
            "type" : "SCALAR"
        }
    ],
    "bufferViews" : [
        {
            "buffer" : 0,
            "byteLength" : 37656,
            "byteOffset" : 0
        },
        {
            "buffer" : 0,
            "byteLength" : 37656,
            "byteOffset" : 37656
        },
        {
            "buffer" : 0,
            "byteLength" : 25104,
            "byteOffset" : 75312
        },
        {
            "buffer" : 0,
            "byteLength" : 9792,
            "byteOffset" : 100416
        },
        {
            "buffer" : 0,
            "byteLength" : 5040,
            "byteOffset" : 110208
        },
        {
            "buffer" : 0,
            "byteLength" : 5040,
            "byteOffset" : 115248
        },
        {
            "buffer" : 0,
            "byteLength" : 3360,
            "byteOffset" : 120288
        },
        {
            "buffer" : 0,
            "byteLength" : 1368,
            "byteOffset" : 123648
        },
        {
            "buffer" : 0,
            "byteLength" : 188040,
            "byteOffset" : 125016
        },
        {
            "buffer" : 0,
            "byteLength" : 188040,
            "byteOffset" : 313056
        },
        {
            "buffer" : 0,
            "byteLength" : 125360,
            "byteOffset" : 501096
        },
        {
            "buffer" : 0,
            "byteLength" : 47220,
            "byteOffset" : 626456
        },
        {
            "buffer" : 0,
            "byteLength" : 73032,
            "byteOffset" : 673676
        },
        {
            "buffer" : 0,
            "byteLength" : 73032,
            "byteOffset" : 746708
        },
        {
            "buffer" : 0,
            "byteLength" : 48688,
            "byteOffset" : 819740
        },
        {
            "buffer" : 0,
            "byteLength" : 18456,
            "byteOffset" : 868428
        },
        {
            "buffer" : 0,
            "byteLength" : 60984,
            "byteOffset" : 886884
        },
        {
            "buffer" : 0,
            "byteLength" : 60984,
            "byteOffset" : 947868
        },
        {
            "buffer" : 0,
            "byteLength" : 40656,
            "byteOffset" : 1008852
        },
        {
            "buffer" : 0,
            "byteLength" : 12480,
            "byteOffset" : 1049508
        },
        {
            "buffer" : 0,
            "byteLength" : 104160,
            "byteOffset" : 1061988
        },
        {
            "buffer" : 0,
            "byteLength" : 104160,
            "byteOffset" : 1166148
        },
        {
            "buffer" : 0,
            "byteLength" : 69440,
            "byteOffset" : 1270308
        },
        {
            "buffer" : 0,
            "byteLength" : 26040,
            "byteOffset" : 1339748
        },
        {
            "buffer" : 0,
            "byteLength" : 23760,
            "byteOffset" : 1365788
        },
        {
            "buffer" : 0,
            "byteLength" : 23760,
            "byteOffset" : 1389548
        },
        {
            "buffer" : 0,
            "byteLength" : 15840,
            "byteOffset" : 1413308
        },
        {
            "buffer" : 0,
            "byteLength" : 3960,
            "byteOffset" : 1429148
        }
    ],
    "buffers" : [
        {
            "byteLength" : 1433108,
            "uri" : "data:application/octet-stream;base64,"
        }
    ]
}
